<?xml version="1.0" encoding="UTF-8"?>
<svg id="Camada_2" data-name="Camada 2" xmlns="http://www.w3.org/2000/svg" viewBox="0 0 488.66 288">
  <defs>
    <style>
      .cls-1 {
        fill: #e39e22;
      }
    </style>
  </defs>
  <g id="Camada_3" data-name="Camada 3">
    <polygon class="cls-1" points="488.66 0 488.66 288 338.9 288 338.9 216 226.58 216 226.58 128.65 257.3 128.65 257.3 185.28 369.62 185.28 369.62 257.28 457.94 257.28 457.94 30.72 369.62 30.72 369.62 120.96 218.88 120.96 218.88 288 68.16 288 68.16 82.56 0 82.56 0 0 287.04 0 287.04 82.56 281.28 82.56 262.08 82.57 256.32 82.58 256.32 30.72 30.72 30.72 30.72 51.84 98.88 51.84 98.88 257.28 188.16 257.28 188.16 90.24 338.9 90.24 338.9 0 488.66 0"/>
  </g>
</svg>