<svg width="140" height="135" viewBox="0 0 140 135" fill="none" xmlns="http://www.w3.org/2000/svg">
<g clip-path="url(#clip0_37_60)">
<path d="M81.8068 2.7533C81.6046 3.07997 81.2779 3.51552 81.0913 3.7333C80.889 3.95108 80.7335 4.18441 80.7335 4.26219C80.7335 4.33997 80.5001 4.69774 80.2046 5.03997C79.629 5.75552 78.1824 8.11996 77.7313 9.09997C77.5757 9.44219 77.3424 9.92441 77.2179 10.1577C77.0935 10.4066 77.0001 10.6555 77.0001 10.7333C77.0001 10.8111 76.9224 11.06 76.8135 11.3089C75.9424 13.4244 75.2268 17.4844 75.2268 20.3C75.2424 24.1266 76.2846 28.9333 77.7313 31.7644C77.8401 31.9822 77.9335 32.2777 77.9335 32.4022C77.9335 32.5266 78.0424 32.7133 78.1668 32.8222C78.2913 32.9311 78.4001 33.1333 78.4001 33.2889C78.4001 33.4444 78.509 33.6466 78.6335 33.7555C78.7579 33.8644 78.8668 34.0822 78.8668 34.2377C78.8668 34.4089 78.929 34.5333 79.0068 34.5333C79.0846 34.5333 79.2246 34.72 79.3179 34.9533C79.5046 35.4355 79.769 35.8866 80.0801 36.2133C80.1735 36.3222 80.2668 36.4933 80.2668 36.5711C80.2668 36.6644 80.3601 36.82 80.469 36.9289C80.5624 37.0533 80.7646 37.3022 80.889 37.4889C81.2313 38.0022 82.1801 39.2622 82.289 39.3555C82.3357 39.4022 82.6624 39.7755 82.989 40.1955C83.6735 41.0511 85.7735 43.1822 86.4268 43.6955C86.6446 43.8666 87.1735 44.3177 87.5779 44.6755C87.9824 45.0489 88.4801 45.4533 88.6668 45.5777C88.869 45.7022 89.4135 46.0911 89.8957 46.4333C90.3779 46.7911 91.3268 47.3977 92.0112 47.8022C92.6957 48.2066 93.3646 48.6111 93.489 48.6889C93.8001 48.8755 95.8846 49.8866 96.7557 50.26C97.1446 50.4311 97.5801 50.6333 97.7201 50.7266C97.8757 50.8044 98.1246 50.8666 98.2646 50.8666C98.4201 50.8666 98.7468 50.9755 98.9957 51.1C99.229 51.2244 99.5401 51.3333 99.6646 51.3333C99.789 51.3333 100.116 51.4266 100.38 51.5511C100.893 51.7844 102.387 52.1111 104.378 52.4377C106.042 52.7177 113.245 52.8111 114.333 52.5622C114.8 52.4689 115.578 52.3289 116.045 52.2511C117.336 52.0644 119.622 51.4577 120.602 51.0533C120.851 50.9444 121.069 50.8666 121.116 50.8666C121.24 50.8666 124.367 49.2955 124.833 48.9844C125.098 48.8289 125.409 48.6422 125.533 48.58C125.658 48.5177 125.845 48.4089 125.922 48.3466C126.016 48.2689 126.436 47.9577 126.856 47.6466C128.536 46.4022 131.507 43.3844 132.3 42.1244C132.393 41.9844 132.922 41.1755 133.513 40.32C134.089 39.4644 134.556 38.7177 134.556 38.6711C134.556 38.6089 134.12 39.0133 133.576 39.5422C132.596 40.5222 131.242 41.7044 130.916 41.8444C130.822 41.8911 130.356 42.1711 129.889 42.4822C128.8 43.1977 127.338 43.8666 125.845 44.3644C124.149 44.94 123.869 45.0177 123.2 45.1266C122.811 45.2044 122.111 45.3289 121.645 45.4066C120.571 45.6244 113.789 45.6244 112.545 45.4222C112.031 45.3289 111.113 45.2044 110.491 45.1111C109.869 45.0333 109.231 44.8933 109.06 44.8155C108.889 44.7222 108.531 44.6444 108.267 44.6444C108.002 44.6444 107.536 44.5355 107.225 44.4111C106.929 44.2866 106.525 44.1777 106.338 44.1777C106.167 44.1777 105.809 44.0689 105.56 43.9444C105.327 43.82 105 43.7111 104.86 43.7111C104.72 43.7111 104.409 43.6022 104.16 43.4777C103.927 43.3533 103.647 43.2444 103.569 43.2444C103.445 43.2444 103.071 43.0889 101.656 42.4666C101.485 42.3889 101.189 42.28 101.002 42.2333C100.8 42.1711 100.645 42.0622 100.645 41.9844C100.645 41.9066 100.505 41.8444 100.349 41.8444C100.178 41.8444 99.9446 41.7355 99.8046 41.6111C99.6801 41.4866 99.4779 41.3777 99.3379 41.3777C99.2135 41.3777 99.0735 41.3155 99.0268 41.2377C98.9801 41.1755 98.5601 40.9111 98.0779 40.6777C97.6112 40.4289 97.2224 40.18 97.2224 40.1022C97.2224 40.04 97.129 39.9777 97.0201 39.9777C96.9113 39.9777 96.6779 39.8689 96.5224 39.7444C96.3512 39.62 95.4801 38.9822 94.5779 38.3133C92.6024 36.8511 92.229 36.5244 90.6268 34.9222C89.1179 33.4289 87.9513 32.1377 87.609 31.5933C87.469 31.3755 87.2201 31.0489 87.0646 30.8777C86.6135 30.4111 85.089 28.0777 85.089 27.8911C85.089 27.7977 85.0268 27.6889 84.9646 27.6577C84.809 27.6111 84.7157 27.44 83.549 25.0911C83.0979 24.1733 82.6157 23.2244 82.5068 22.9911C82.3824 22.7733 82.289 22.4777 82.289 22.3533C82.289 22.2133 82.1957 21.9177 82.0713 21.6689C81.7601 21.0466 81.3557 19.74 81.3557 19.3666C81.3557 19.18 81.2935 18.9777 81.2001 18.8844C81.1224 18.8066 80.9824 18.3089 80.9046 17.8111C80.8113 17.2977 80.6713 16.52 80.5779 16.1C80.3446 15.0577 80.3446 8.83552 80.5779 7.9333C80.6713 7.54441 80.8113 6.87552 80.889 6.43997C80.9513 6.00441 81.0913 5.49108 81.1846 5.31997C81.2779 5.14886 81.3557 4.88441 81.3557 4.74441C81.3557 4.47997 81.6046 3.82663 82.0868 2.83108C82.4446 2.11552 82.2424 2.0533 81.8068 2.7533Z" fill="#3AAFC9"/>
<path d="M52.7333 9.14667C52.7333 9.24 52.64 9.41111 52.5466 9.52C52.2822 9.8 51.3333 11.1844 51.3333 11.2933C51.3333 11.34 51.0066 11.8067 50.6022 12.3511C50.1822 12.8956 49.7466 13.5022 49.6222 13.6889C49.4977 13.8756 49.2955 14.1244 49.2022 14.2489C49.0933 14.3578 49 14.4822 49 14.5444C49 14.6222 47.8644 16.2089 47.32 16.8778C47.2577 16.9556 47.0244 17.3133 46.8222 17.6556C46.62 17.9978 46.4022 18.3089 46.3555 18.3556C46.3088 18.4022 46.1844 18.6044 46.0911 18.8222C45.9822 19.04 45.6866 19.5533 45.4222 19.9889C45.1733 20.4089 44.9244 20.8756 44.8622 21C44.8155 21.1244 44.7066 21.3422 44.6288 21.4667C44.5511 21.5911 44.4422 21.8089 44.3955 21.9333C44.3488 22.0578 44.2244 22.3689 44.1 22.6333C43.9911 22.8822 43.7733 23.38 43.6333 23.7222C43.4933 24.0644 43.2755 24.5467 43.1511 24.78C43.0266 25.0289 42.9333 25.34 42.9333 25.48C42.9333 25.62 42.84 25.9311 42.7155 26.1489C42.6066 26.3667 42.4666 26.8178 42.3888 27.16C42.3266 27.4867 42.2333 27.8289 42.1866 27.9222C42.0622 28.1089 41.72 29.5089 41.5333 30.6133C41.4711 31.0644 41.3311 31.7644 41.2377 32.1689C40.3355 36.2289 40.6155 44.9089 41.7822 48.9067C41.9066 49.3111 42 49.8244 42 50.0111C42 50.1978 42.1088 50.5711 42.2333 50.8044C42.3577 51.0533 42.4666 51.38 42.4666 51.5511C42.4666 51.8622 42.8555 53.1222 43.1977 53.9311C43.3066 54.1955 43.4 54.5222 43.4 54.6467C43.4 54.7867 43.4933 55.0822 43.6177 55.3311C44.0222 56.1244 44.3333 56.9022 44.3333 57.1355C44.3333 57.26 44.4422 57.4467 44.5666 57.5555C44.6911 57.6644 44.8 57.8511 44.8 57.96C44.8 58.0844 44.8622 58.3022 44.9555 58.4578C45.0333 58.5978 45.1733 58.8933 45.2666 59.1111C45.3444 59.3289 45.4844 59.6089 45.5622 59.7333C45.64 59.8578 45.8266 60.2467 45.9822 60.5889C46.1533 60.9311 46.3711 61.3044 46.48 61.4133C46.5733 61.5222 46.6666 61.7089 46.6666 61.8178C46.6666 61.9422 46.7755 62.1133 46.9 62.2222C47.0244 62.3311 47.1333 62.5489 47.1333 62.7044C47.1333 62.8755 47.18 63 47.2577 63C47.32 63 47.5533 63.3267 47.7555 63.7311C47.9733 64.1511 48.1755 64.5089 48.2377 64.5555C48.2844 64.6022 48.4866 64.9133 48.6888 65.2555C48.8911 65.5978 49.0933 65.9089 49.14 65.9555C49.2022 66.0022 49.5133 66.4533 49.8555 66.9667C50.1977 67.48 50.5244 67.9622 50.6022 68.0555C50.6644 68.1333 51.1777 68.8333 51.7533 69.6111C52.3288 70.3733 54.1644 72.38 55.8288 74.0444C59.0022 77.2022 59.1266 77.3267 60.9 78.7111C61.5066 79.1778 62.0822 79.6444 62.1911 79.7533C62.3 79.8622 62.44 79.9555 62.5022 79.9555C62.5644 79.9555 62.86 80.1733 63.1555 80.4222C64.0577 81.1844 64.0733 81.2 64.1666 81.2C64.2911 81.2 65.24 81.8844 65.3022 82.0089C65.3333 82.0867 65.4111 82.1333 65.4889 82.1333C65.5977 82.1333 67.0444 83.02 67.4333 83.3311C67.5266 83.4089 67.76 83.5489 67.9777 83.6422C68.1955 83.7511 68.9266 84.1555 69.6111 84.5289C71.7889 85.7422 73.9822 86.7689 76.1444 87.5933C76.6577 87.7955 77.14 88.0133 77.2177 88.0755C77.3111 88.1378 77.4977 88.2 77.6377 88.2C77.7933 88.2 78.1044 88.2778 78.3533 88.3867C79.2089 88.7289 80.3444 89.1178 80.5311 89.1333C80.6244 89.1333 80.9044 89.2111 81.1533 89.32C81.8222 89.6 83.3 89.8955 84.8555 90.0667C85.6333 90.1444 86.6133 90.2844 87.0333 90.3778C87.4689 90.4555 89.2422 90.5955 91 90.6889C92.7577 90.7978 94.4689 90.8911 94.8111 90.9067C95.5889 90.9689 103.133 90.4555 103.444 90.3155C103.569 90.2689 104.207 90.16 104.844 90.0667C105.482 89.9889 106.509 89.8178 107.1 89.6933C107.707 89.5533 108.609 89.3667 109.122 89.2578C109.636 89.1489 110.133 89.0089 110.211 88.9467C110.304 88.9 110.647 88.8067 110.989 88.7444C111.331 88.6822 111.689 88.5733 111.767 88.5111C111.86 88.4333 112.187 88.34 112.513 88.2778C112.824 88.2155 113.136 88.1067 113.182 88.0289C113.229 87.9511 113.384 87.8889 113.524 87.8889C113.664 87.8733 114.069 87.7489 114.411 87.5778C114.753 87.4067 115.127 87.2822 115.236 87.2667C115.344 87.2667 115.547 87.2044 115.702 87.1267C115.842 87.0489 116.527 86.7222 117.211 86.3955C117.896 86.0844 118.564 85.7733 118.689 85.6955C118.813 85.6333 119.233 85.4155 119.622 85.2133C120.011 85.0267 120.602 84.6844 120.944 84.4667C121.287 84.2489 121.644 84.0467 121.722 84C121.816 83.9533 122.391 83.5644 123.013 83.1444C123.651 82.7089 124.273 82.2889 124.413 82.2111C124.647 82.0711 124.74 81.9933 125.253 81.5889C125.362 81.4955 125.984 81.0133 126.622 80.5C127.711 79.6289 130.138 77.28 131.522 75.7555C132.736 74.4333 135.956 70.0155 135.956 69.6889C135.956 69.6111 136.049 69.4555 136.158 69.3467C136.267 69.2378 136.438 68.9733 136.531 68.7555C136.827 68.18 137.449 67.0755 137.62 66.8578C137.713 66.7489 137.822 66.4689 137.884 66.22C137.931 65.9867 138.056 65.8 138.133 65.8C138.227 65.8 138.289 65.6911 138.289 65.5511C138.289 65.4111 138.398 65.1155 138.507 64.8978C138.942 64.1044 139.269 63.2955 139.176 63.2178C139.129 63.1711 139.051 63.28 138.989 63.4511C138.942 63.6378 138.833 63.7778 138.756 63.7778C138.678 63.7778 138.507 63.9955 138.367 64.2444C138.071 64.8044 134.058 68.9422 133.093 69.6422C132.518 70.0933 132.191 70.3422 131.507 70.9178C130.729 71.5555 126.793 74.0444 126.544 74.0444C126.498 74.0444 126.342 74.1533 126.218 74.2778C126.078 74.4022 125.844 74.5111 125.673 74.5111C125.518 74.5111 125.378 74.5733 125.378 74.6511C125.378 74.7289 125.222 74.8533 125.036 74.9C124.833 74.9622 124.258 75.1955 123.744 75.4289C123.231 75.6778 122.5 75.9889 122.111 76.1444C121.722 76.3 121.193 76.5178 120.913 76.6267C120.649 76.7511 120.291 76.8444 120.136 76.8444C119.98 76.8444 119.778 76.9067 119.7 76.9844C119.607 77.0778 119.264 77.2022 118.922 77.2955C118.58 77.3889 117.88 77.56 117.367 77.7155C116.853 77.8555 116.091 78.0267 115.656 78.12C115.236 78.1978 114.66 78.3378 114.38 78.4155C114.116 78.4933 113.369 78.6333 112.747 78.7111C112.124 78.8044 111.191 78.9444 110.678 79.0222C109.48 79.2244 100.551 79.2244 99.3222 79.0222C98.8089 78.9444 97.7977 78.8044 97.0666 78.7111C96.3355 78.6178 95.5422 78.4778 95.2777 78.4C94.7955 78.26 93.7689 78.0422 92.2444 77.7622C91.7777 77.6844 91.3266 77.5444 91.2333 77.4822C91.1555 77.4044 90.7511 77.2955 90.3466 77.2489C89.9422 77.1867 89.5689 77.0778 89.5222 76.9844C89.46 76.9067 89.2733 76.8444 89.0866 76.8444C88.9 76.8444 88.5422 76.7355 88.2933 76.6111C88.06 76.4867 87.7333 76.3778 87.5933 76.3778C87.4533 76.3778 87.1422 76.2689 86.8933 76.1444C86.66 76.02 86.38 75.9111 86.2711 75.9111C86.1777 75.9111 85.9289 75.8178 85.7111 75.7089C85.4933 75.6 84.98 75.3822 84.5444 75.2267C82.7866 74.5889 78.9133 72.6755 76.5333 71.26C75.46 70.6222 74.5577 70.0622 74.5111 70C74.4644 69.9533 74.1533 69.7355 73.8111 69.5333C73.4689 69.3311 73.1266 69.0978 73.0333 69.0355C72.9555 68.9733 72.1777 68.3978 71.3222 67.7755C70.4666 67.1378 69.5955 66.4689 69.3777 66.2667C69.16 66.08 68.6777 65.6755 68.2889 65.3644C66.2355 63.6689 63.3422 60.7755 61.5222 58.5822C61.18 58.1778 60.7755 57.68 60.6044 57.4933C60.06 56.8711 58.4889 54.7711 58.4889 54.6778C58.4889 54.6155 58.3955 54.4755 58.3022 54.3667C57.9289 53.9622 57.7733 53.7444 57.4 53.1222C57.1977 52.78 56.9333 52.4067 56.8244 52.2978C56.7155 52.1889 56.6222 52.0178 56.6222 51.94C56.6222 51.8622 56.42 51.5044 56.1555 51.1467C55.9066 50.8044 55.6888 50.4156 55.6888 50.2911C55.6888 50.1822 55.6266 50.0889 55.5644 50.0889C55.5022 50.0889 55.2533 49.6844 55.02 49.1867C54.7866 48.7044 54.5066 48.16 54.4133 47.9889C54.32 47.8178 54.18 47.5689 54.1022 47.4444C54.04 47.32 53.9311 47.1022 53.8844 46.9778C53.8377 46.8533 53.7288 46.6355 53.6511 46.5111C53.5733 46.3867 53.4644 46.1689 53.4177 46.0444C53.3711 45.92 53.2311 45.5933 53.1222 45.3444C52.5777 44.1311 52.4222 43.7267 52.4222 43.5867C52.4222 43.4933 52.3288 43.2289 52.2044 42.98C51.8 42.1867 51.4888 41.3778 51.4888 41.16C51.4888 41.0355 51.38 40.74 51.2555 40.5067C51.1311 40.2578 51.0222 39.8689 51.0222 39.6355C51.0222 39.4022 50.96 39.1689 50.8666 39.1222C50.7888 39.0756 50.68 38.6867 50.6177 38.2511C50.5555 37.8311 50.4622 37.4422 50.3844 37.4111C50.3222 37.3644 50.2133 36.9911 50.1666 36.5867C50.1044 36.1822 49.9955 35.6689 49.9177 35.4511C49.8244 35.2178 49.7 34.5178 49.6222 33.8955C49.5444 33.2578 49.4044 32.3244 49.3266 31.8111C49.1088 30.5978 49.1088 22.6022 49.3266 21.3889C49.4044 20.8756 49.5444 19.9578 49.6066 19.3667C49.6844 18.76 49.8244 18.1067 49.9022 17.8889C49.9955 17.6711 50.12 17.1733 50.1666 16.7689C50.2133 16.3644 50.3222 15.9911 50.4155 15.9444C50.4933 15.8822 50.5555 15.6644 50.5555 15.4311C50.5555 15.1978 50.6644 14.8089 50.7888 14.56C50.9133 14.3267 51.0222 13.9689 51.0222 13.7822C51.0222 13.5956 51.1311 13.3 51.2555 13.1289C51.38 12.9733 51.4888 12.7089 51.4888 12.5689C51.4888 12.3356 52.1422 10.7956 52.7644 9.53555C52.8577 9.33333 52.8888 9.13111 52.8422 9.06889C52.78 9.02222 52.7333 9.05333 52.7333 9.14667Z" fill="#3AAFC9"/>
<path d="M17.2667 21.0933C17.2667 21.1866 17.0956 21.4511 16.8934 21.7155C15.9289 22.9133 14.4667 24.7488 13.8134 25.5888C13.4245 26.1022 12.9578 26.6933 12.7711 26.8955C12.5845 27.0977 12.4445 27.3155 12.4445 27.3622C12.4445 27.4399 12.1956 27.7355 11.1067 28.9644C10.9045 29.1977 10.7334 29.4466 10.7334 29.5088C10.7334 29.5866 10.5311 29.8355 10.2978 30.0999C10.0645 30.3488 9.50446 31.0488 9.05335 31.6555C8.61779 32.2466 8.18224 32.8222 8.08891 32.9311C8.01113 33.0399 7.93335 33.1955 7.93335 33.2733C7.93335 33.3511 7.84002 33.5222 7.73113 33.6311C7.51335 33.8799 7.2178 34.3311 7.00002 34.7666C6.90668 34.9377 6.59557 35.4977 6.31557 36.0111C5.5378 37.3799 4.68224 39.1688 3.93557 40.9111C3.81113 41.2066 3.60891 41.6577 3.48446 41.8911C3.36002 42.1399 3.26668 42.4355 3.26668 42.5755C3.26668 42.6999 3.17335 43.0266 3.06446 43.2911C2.5978 44.4111 2.10002 46.0133 1.85113 47.2111C1.7578 47.6311 1.6178 48.0511 1.54002 48.1288C1.46224 48.2222 1.40002 48.5022 1.40002 48.7822C1.40002 49.0466 1.30668 49.6222 1.18224 50.0266C0.840017 51.1777 0.62224 52.7177 0.451128 55.2999C0.373351 56.5755 0.233351 57.8355 0.155573 58.0844C-0.0466493 58.6755 -0.0466493 63.1399 0.155573 63.9799C0.233351 64.3377 0.373351 65.7222 0.466684 67.0444C0.62224 69.6577 0.855573 71.4777 1.12002 72.3177C1.21335 72.6133 1.3378 73.2511 1.41557 73.7177C1.60224 74.9777 1.88224 76.2533 2.0378 76.5644C2.11557 76.7044 2.22446 77.1244 2.27113 77.4977C2.33335 77.8711 2.42668 78.2288 2.48891 78.3222C2.55113 78.3999 2.66002 78.7266 2.72224 79.0222C2.84668 79.6911 3.25113 80.9511 3.53113 81.6199C3.64002 81.8844 3.73335 82.2111 3.73335 82.3355C3.73335 82.4599 3.84224 82.7711 3.96668 83.0044C4.09113 83.2533 4.20002 83.5799 4.20002 83.7199C4.20002 83.8599 4.26224 84.0155 4.34002 84.0622C4.4178 84.1088 4.52668 84.3422 4.57335 84.5755C4.63557 84.8244 4.77557 85.2133 4.88446 85.4777C5.00891 85.7266 5.18002 86.1155 5.2578 86.3333C6.12891 88.4022 6.50224 89.2266 6.72002 89.5999C6.78224 89.7244 6.89113 89.9422 6.9378 90.0666C7.06224 90.3777 8.07335 92.4155 8.24446 92.7111C8.32224 92.8355 8.41557 93.0533 8.46224 93.1777C8.52446 93.3022 8.77335 93.7533 9.02224 94.1888C9.28668 94.6088 9.58224 95.1377 9.69113 95.3555C9.78446 95.5733 9.95557 95.8377 10.0645 95.9466C10.1734 96.0555 10.2667 96.2111 10.2667 96.2888C10.2667 96.3666 10.5622 96.8644 10.92 97.4088C11.2934 97.9533 11.7289 98.6377 11.8845 98.9333C12.0556 99.2288 12.2578 99.5399 12.32 99.6333C12.74 100.178 13.58 101.344 13.8911 101.842C14.1089 102.169 14.4822 102.682 14.7622 102.978C15.0267 103.273 15.2445 103.569 15.2445 103.631C15.2445 103.693 15.3378 103.833 15.4467 103.942C15.5556 104.051 16.0067 104.595 16.4578 105.155C17.7178 106.711 17.8578 106.867 18.8689 108.018C19.3978 108.609 19.8956 109.184 19.9578 109.309C20.3156 109.9 25.6045 114.862 27.6111 116.48C28.2178 116.962 28.7311 117.398 28.7778 117.444C28.9178 117.631 33.2733 120.867 33.3822 120.867C33.4289 120.867 33.74 121.084 34.0667 121.333C34.3934 121.598 34.7045 121.8 34.7667 121.8C34.8289 121.8 35.14 121.987 35.4511 122.22C35.7622 122.469 36.1511 122.733 36.3222 122.842C36.4934 122.951 37.3022 123.433 38.1111 123.915C38.92 124.413 39.9778 125.02 40.4445 125.253C40.9111 125.502 41.44 125.782 41.6111 125.875C42.14 126.171 42.3578 126.28 43.0889 126.622C43.4778 126.809 43.8978 127.027 44.0222 127.104C44.1467 127.182 44.3645 127.291 44.4889 127.338C44.6133 127.384 45.1422 127.618 45.6556 127.867C46.1689 128.115 46.8689 128.427 47.2111 128.567C47.5534 128.707 48.0356 128.924 48.2689 129.049C48.5178 129.173 48.7822 129.267 48.8756 129.267C49.0311 129.267 49.6534 129.515 50.6334 129.967C50.8978 130.091 51.2867 130.231 51.5356 130.293C51.7689 130.34 52.0022 130.449 52.0489 130.527C52.0956 130.604 52.2822 130.667 52.4689 130.667C52.6556 130.667 53.0134 130.775 53.2622 130.9C53.4956 131.024 53.8222 131.133 53.9622 131.133C54.1022 131.133 54.3978 131.227 54.6156 131.351C54.8334 131.46 55.2845 131.6 55.6267 131.678C55.9534 131.74 56.2956 131.833 56.3889 131.88C56.8089 132.16 59.4689 132.782 61.2111 133C61.8022 133.078 62.6111 133.218 63 133.295C64.1822 133.56 66.3445 133.762 69.5334 133.933C71.1978 134.011 73.1267 134.151 73.8111 134.26C74.4956 134.353 75.8645 134.4 76.8445 134.353C80.5 134.213 84.9022 133.902 86.2556 133.7C87.0334 133.575 87.9356 133.451 88.2778 133.404C89.2578 133.311 91.0311 132.984 91.5756 132.829C91.8556 132.735 92.4156 132.611 92.82 132.533C93.52 132.409 94.4689 132.175 96.1334 131.74C96.5222 131.647 96.9422 131.507 97.0822 131.444C97.2222 131.367 97.6111 131.258 97.9222 131.195C98.2489 131.133 98.7 130.993 98.9178 130.884C99.1356 130.76 99.4778 130.667 99.6645 130.667C99.8511 130.667 100.038 130.604 100.1 130.527C100.147 130.449 100.396 130.34 100.66 130.278C100.924 130.215 101.313 130.075 101.547 129.951C101.78 129.827 102.06 129.733 102.169 129.733C102.278 129.733 102.48 129.671 102.636 129.593C102.884 129.453 103.927 128.987 104.922 128.551C105.669 128.24 109.06 126.544 109.822 126.093C110.211 125.875 110.662 125.627 110.833 125.549C111.004 125.471 111.409 125.222 111.736 125.004C112.062 124.787 112.358 124.6 112.42 124.6C112.467 124.6 112.762 124.382 113.089 124.133C113.416 123.869 113.727 123.667 113.789 123.667C113.851 123.667 114.162 123.449 114.489 123.2C114.816 122.935 115.127 122.733 115.189 122.733C115.236 122.733 115.391 122.64 115.5 122.531C115.92 122.173 116.138 122.002 116.978 121.411C117.444 121.084 117.864 120.773 117.911 120.727C117.958 120.664 118.331 120.338 118.767 120.011C120.976 118.253 125.409 113.82 127.167 111.611C127.493 111.175 127.82 110.802 127.867 110.755C127.929 110.709 128.536 109.9 129.236 108.967C129.936 108.018 130.558 107.178 130.636 107.1C130.698 107.007 130.931 106.664 131.133 106.322C131.336 105.98 131.553 105.669 131.616 105.622C131.662 105.575 131.849 105.295 132.02 105C132.176 104.704 132.502 104.16 132.736 103.787C132.969 103.429 133.311 102.869 133.482 102.542C133.824 101.904 134.073 101.453 134.276 101.111C134.338 100.987 134.431 100.784 134.478 100.675C134.524 100.582 134.587 100.395 134.633 100.287C134.68 100.193 134.913 99.7422 135.162 99.3222C135.66 98.4822 135.722 98.3111 135.504 98.3111C135.442 98.3111 135.193 98.5911 134.976 98.9177C134.182 100.1 129.889 104.238 127.633 105.98C126.467 106.867 125.362 107.644 125.238 107.644C125.16 107.644 125.067 107.691 125.036 107.753C124.973 107.893 124.04 108.578 123.9 108.578C123.853 108.578 123.527 108.795 123.169 109.044C122.827 109.309 122.438 109.511 122.329 109.511C122.22 109.511 122.111 109.573 122.08 109.635C122.002 109.822 118.191 111.782 116.433 112.544C114.753 113.26 114.069 113.54 113.011 113.882C112.498 114.053 111.953 114.255 111.813 114.333C111.658 114.427 111.284 114.551 110.958 114.629C109.418 115.033 108.936 115.158 108.656 115.282C108.484 115.36 108.033 115.484 107.644 115.578C106.229 115.873 105.373 116.075 104.907 116.215C104.627 116.293 103.973 116.433 103.429 116.511C102.884 116.589 102.122 116.713 101.733 116.807C101.344 116.9 100.691 116.962 100.287 116.978C99.8667 116.978 99.4 117.04 99.2445 117.133C98.7934 117.367 93.7067 117.678 89.9889 117.678C86.3645 117.678 81.0911 117.382 80.3289 117.149C80.08 117.071 79.3022 116.962 78.5867 116.915C77.8867 116.869 77.1711 116.76 77.0156 116.667C76.8445 116.589 76.4089 116.511 76.0511 116.511C75.6778 116.511 74.9934 116.418 74.5267 116.293C73.5934 116.06 72.4422 115.811 71.0889 115.562C70.6222 115.484 70.1711 115.344 70.0934 115.251C70 115.173 69.7667 115.111 69.5489 115.111C69.3156 115.111 68.9422 115.002 68.6934 114.878C68.46 114.753 68.1334 114.644 67.9934 114.644C67.7756 114.644 65.0222 113.758 64.1667 113.415C63.9956 113.338 63.5756 113.182 63.2334 113.042C61.5222 112.389 60.5422 112 59.6556 111.611C59.4067 111.487 58.8467 111.253 58.4111 111.067C57.26 110.569 53.7134 108.795 52.8111 108.267C52.3911 108.002 51.8467 107.722 51.6134 107.629C51.3645 107.535 51.1778 107.395 51.1778 107.318C51.1778 107.24 51.1 107.178 51.0067 107.178C50.4311 107.178 42.42 101.78 41.0511 100.458C40.9267 100.349 40.3667 99.8822 39.7911 99.4466C39.2311 98.9955 38.5622 98.4355 38.2978 98.2022C38.0489 97.9688 37.2556 97.2377 36.54 96.5844C34.0356 94.3133 30.7378 90.8755 29.1667 88.8999C28.8245 88.4799 28.4511 88.0288 28.3422 87.9044C28.2334 87.7955 27.7045 87.1266 27.1756 86.4266C26.6467 85.7422 26.1645 85.0888 26.1022 85.0111C25.1534 83.8288 22.5556 79.9088 22.5556 79.6755C22.5556 79.5666 22.4934 79.4888 22.4 79.4888C22.3222 79.4888 22.2134 79.3177 22.1511 79.0999C22.1045 78.8822 21.9956 78.7111 21.9334 78.7111C21.8711 78.7111 21.7311 78.5244 21.6378 78.2755C21.4045 77.7311 21.0778 77.1711 20.86 76.9533C20.7667 76.8599 20.6889 76.6577 20.6889 76.5177C20.6889 76.3622 20.6267 76.2222 20.5645 76.1911C20.4867 76.1755 19.9578 75.1644 19.3667 73.9666C18.3556 71.8822 18.0911 71.3222 17.6245 70.2022C17.5156 69.9222 17.3134 69.4711 17.2045 69.1911C17.08 68.9111 16.8622 68.3666 16.7222 67.9777C16.5667 67.5888 16.3489 67.0599 16.24 66.7799C16.1156 66.5155 16.0222 66.1888 16.0222 66.0644C16.0222 65.9399 15.9134 65.6288 15.7889 65.3955C15.6645 65.1466 15.5556 64.7888 15.5556 64.6022C15.5556 64.4155 15.4934 64.2288 15.4156 64.1666C15.3378 64.1199 15.2289 63.8555 15.1667 63.5755C15.0734 63.1088 14.8867 62.4866 14.3734 60.8222C14.2489 60.4333 14.1556 59.9511 14.1556 59.7177C14.1556 59.4999 14.0934 59.2666 14 59.1733C13.9222 59.0955 13.7822 58.5977 13.7045 58.0999C13.4711 56.6844 13.2222 55.3777 13.0356 54.5533C12.9578 54.1488 12.8178 53.1999 12.74 52.4533C12.6622 51.7066 12.5378 50.5711 12.46 49.9333C12.2578 48.4088 12.2578 40.6777 12.46 39.2777C12.5378 38.6711 12.6622 37.5977 12.74 36.8666C12.8178 36.1355 12.9578 35.2333 13.0511 34.8444C13.2222 34.1133 13.44 33.0555 13.7045 31.5777C13.7822 31.1111 13.9222 30.66 13.9845 30.5666C14.0622 30.4888 14.1556 30.0999 14.2178 29.7111C14.28 29.3377 14.3889 28.9488 14.4511 28.8555C14.5289 28.7777 14.6222 28.4822 14.6689 28.2333C14.7622 27.6888 15.0422 26.8488 15.3378 26.2422C15.4622 25.9933 15.5556 25.6822 15.5556 25.5266C15.5556 25.3866 15.6645 25.1222 15.7889 24.9511C15.9134 24.7955 16.0222 24.5622 16.0222 24.4533C16.0222 24.2044 16.3178 23.4888 17.0022 22.1355C17.2667 21.5911 17.4378 21.1088 17.3756 21.0466C17.3134 20.9999 17.2667 21.0155 17.2667 21.0933Z" fill="#3AAFC9"/>
</g>
<defs>
<clipPath id="clip0_37_60">
<rect width="140" height="134.4" fill="white"/>
</clipPath>
</defs>
</svg>
